{
    "asset" : {
        "generator" : "Khronos glTF Blender I/O v1.1.46",
        "version" : "2.0"
    },
    "scene" : 0,
    "scenes" : [
        {
            "name" : "Scene",
            "nodes" : [
                0,
                1,
                2
            ]
        }
    ],
    "nodes" : [
        {
            "mesh" : 0,
            "name" : "House",
            "scale" : [
                6.74631929397583,
                6.74631929397583,
                6.74631929397583
            ],
            "translation" : [
                0,
                24.627416610717773,
                0
            ]
        },
        {
            "mesh" : 1,
            "name" : "Sphere",
            "scale" : [
                6.74631929397583,
                6.74631929397583,
                6.74631929397583
            ],
            "translation" : [
                0,
                22.691753387451172,
                0
            ]
        },
        {
            "mesh" : 2,
            "name" : "Cylinder",
            "scale" : [
                6.74631929397583,
                6.74631929397583,
                6.74631929397583
            ],
            "translation" : [
                0.020789438858628273,
                25.382129669189453,
                -0.008416932076215744
            ]
        }
    ],
    "materials" : [
        {
            "doubleSided" : true,
            "emissiveFactor" : [
                0,
                0,
                0
            ],
            "name" : "Material.001",
            "pbrMetallicRoughness" : {
                "baseColorFactor" : [
                    0.2882995307445526,
                    0.2799529731273651,
                    0.2799529731273651,
                    1
                ],
                "metallicFactor" : 0,
                "roughnessFactor" : 0.5
            }
        },
        {
            "doubleSided" : true,
            "emissiveFactor" : [
                0,
                0,
                0
            ],
            "name" : "Wall and chimney",
            "pbrMetallicRoughness" : {
                "baseColorFactor" : [
                    0.8549858927726746,
                    0.8065555095672607,
                    0.3525458574295044,
                    1
                ],
                "metallicFactor" : 0,
                "roughnessFactor" : 0.5
            }
        },
        {
            "doubleSided" : true,
            "emissiveFactor" : [
                0,
                0,
                0
            ],
            "name" : "Window",
            "pbrMetallicRoughness" : {
                "baseColorFactor" : [
                    0.16657203435897827,
                    0.5656255483627319,
                    1,
                    1
                ],
                "metallicFactor" : 0,
                "roughnessFactor" : 0.15384617447853088
            }
        },
        {
            "doubleSided" : true,
            "emissiveFactor" : [
                0,
                0,
                0
            ],
            "name" : "Wood",
            "pbrMetallicRoughness" : {
                "baseColorFactor" : [
                    0.14981000125408173,
                    0.0942327007651329,
                    0.05847402662038803,
                    1
                ],
                "metallicFactor" : 0,
                "roughnessFactor" : 0.5
            }
        },
        {
            "doubleSided" : true,
            "emissiveFactor" : [
                0,
                0,
                0
            ],
            "name" : "Wall and chimney.001",
            "pbrMetallicRoughness" : {
                "baseColorFactor" : [
                    0.9849011898040771,
                    1,
                    1,
                    1
                ],
                "metallicFactor" : 0,
                "roughnessFactor" : 0.5
            }
        },
        {
            "doubleSided" : true,
            "emissiveFactor" : [
                0,
                0,
                0
            ],
            "name" : "Bricks chimney",
            "pbrMetallicRoughness" : {
                "baseColorFactor" : [
                    0.6324573755264282,
                    0.5969099998474121,
                    0.2629949152469635,
                    1
                ],
                "metallicFactor" : 0,
                "roughnessFactor" : 0.5
            }
        },
        {
            "doubleSided" : true,
            "emissiveFactor" : [
                0,
                0,
                0
            ],
            "name" : "Bricks",
            "pbrMetallicRoughness" : {
                "baseColorFactor" : [
                    0.33834391832351685,
                    0.20877525210380554,
                    0.12644600868225098,
                    1
                ],
                "metallicFactor" : 0,
                "roughnessFactor" : 0.5
            }
        },
        {
            "doubleSided" : true,
            "emissiveFactor" : [
                0,
                0,
                0
            ],
            "name" : "Roof",
            "pbrMetallicRoughness" : {
                "baseColorFactor" : [
                    0.22696590423583984,
                    0.14126330614089966,
                    0.08650047332048416,
                    1
                ],
                "metallicFactor" : 0,
                "roughnessFactor" : 0.5
            }
        },
        {
            "doubleSided" : true,
            "emissiveFactor" : [
                0,
                0,
                0
            ],
            "name" : "Material.003",
            "pbrMetallicRoughness" : {
                "baseColorFactor" : [
                    0.8000000715255737,
                    0.0048601808957755566,
                    0.009157257154583931,
                    1
                ],
                "metallicFactor" : 0,
                "roughnessFactor" : 0.5
            }
        }
    ],
    "meshes" : [
        {
            "name" : "Sphere.001",
            "primitives" : [
                {
                    "attributes" : {
                        "POSITION" : 0,
                        "NORMAL" : 1,
                        "TEXCOORD_0" : 2
                    },
                    "indices" : 3,
                    "material" : 0
                },
                {
                    "attributes" : {
                        "POSITION" : 4,
                        "NORMAL" : 5,
                        "TEXCOORD_0" : 6
                    },
                    "indices" : 7,
                    "material" : 1
                },
                {
                    "attributes" : {
                        "POSITION" : 8,
                        "NORMAL" : 9,
                        "TEXCOORD_0" : 10
                    },
                    "indices" : 11,
                    "material" : 2
                },
                {
                    "attributes" : {
                        "POSITION" : 12,
                        "NORMAL" : 13,
                        "TEXCOORD_0" : 14
                    },
                    "indices" : 15,
                    "material" : 3
                },
                {
                    "attributes" : {
                        "POSITION" : 16,
                        "NORMAL" : 17,
                        "TEXCOORD_0" : 18
                    },
                    "indices" : 19,
                    "material" : 4
                },
                {
                    "attributes" : {
                        "POSITION" : 20,
                        "NORMAL" : 21,
                        "TEXCOORD_0" : 22
                    },
                    "indices" : 23,
                    "material" : 5
                },
                {
                    "attributes" : {
                        "POSITION" : 24,
                        "NORMAL" : 25,
                        "TEXCOORD_0" : 26
                    },
                    "indices" : 27,
                    "material" : 6
                },
                {
                    "attributes" : {
                        "POSITION" : 28,
                        "NORMAL" : 29,
                        "TEXCOORD_0" : 30
                    },
                    "indices" : 31,
                    "material" : 7
                }
            ]
        },
        {
            "name" : "Sphere.002",
            "primitives" : [
                {
                    "attributes" : {
                        "POSITION" : 32,
                        "NORMAL" : 33,
                        "TEXCOORD_0" : 34
                    },
                    "indices" : 35,
                    "material" : 8
                },
                {
                    "attributes" : {
                        "POSITION" : 36,
                        "NORMAL" : 37,
                        "TEXCOORD_0" : 38
                    },
                    "indices" : 39,
                    "material" : 0
                }
            ]
        },
        {
            "name" : "Sphere.003",
            "primitives" : [
                {
                    "attributes" : {
                        "POSITION" : 40,
                        "NORMAL" : 41,
                        "TEXCOORD_0" : 42
                    },
                    "indices" : 43,
                    "material" : 0
                }
            ]
        }
    ],
    "accessors" : [
        {
            "bufferView" : 0,
            "componentType" : 5126,
            "count" : 160,
            "max" : [
                0.011050563305616379,
                -0.4786739945411682,
                0.011050563305616379
            ],
            "min" : [
                -0.011050563305616379,
                -3.2177000045776367,
                -0.011050563305616379
            ],
            "type" : "VEC3"
        },
        {
            "bufferView" : 1,
            "componentType" : 5126,
            "count" : 160,
            "type" : "VEC3"
        },
        {
            "bufferView" : 2,
            "componentType" : 5126,
            "count" : 160,
            "type" : "VEC2"
        },
        {
            "bufferView" : 3,
            "componentType" : 5123,
            "count" : 282,
            "type" : "SCALAR"
        },
        {
            "bufferView" : 4,
            "componentType" : 5126,
            "count" : 255,
            "max" : [
                0.5126242637634277,
                -2.2776966094970703,
                0.8316132426261902
            ],
            "min" : [
                -0.5126242637634277,
                -3.6504967212677,
                -0.7045652270317078
            ],
            "type" : "VEC3"
        },
        {
            "bufferView" : 5,
            "componentType" : 5126,
            "count" : 255,
            "type" : "VEC3"
        },
        {
            "bufferView" : 6,
            "componentType" : 5126,
            "count" : 255,
            "type" : "VEC2"
        },
        {
            "bufferView" : 7,
            "componentType" : 5123,
            "count" : 798,
            "type" : "SCALAR"
        },
        {
            "bufferView" : 8,
            "componentType" : 5126,
            "count" : 4,
            "max" : [
                0.44985032081604004,
                -2.9581334590911865,
                0.5894911885261536
            ],
            "min" : [
                0.44985032081604004,
                -3.373311996459961,
                0.11105843633413315
            ],
            "type" : "VEC3"
        },
        {
            "bufferView" : 9,
            "componentType" : 5126,
            "count" : 4,
            "type" : "VEC3"
        },
        {
            "bufferView" : 10,
            "componentType" : 5126,
            "count" : 4,
            "type" : "VEC2"
        },
        {
            "bufferView" : 11,
            "componentType" : 5123,
            "count" : 6,
            "type" : "SCALAR"
        },
        {
            "bufferView" : 12,
            "componentType" : 5126,
            "count" : 725,
            "max" : [
                0.5447961688041687,
                -2.9412755966186523,
                0.5894911885261536
            ],
            "min" : [
                0.44985032081604004,
                -3.6504967212677,
                -0.5902272462844849
            ],
            "type" : "VEC3"
        },
        {
            "bufferView" : 13,
            "componentType" : 5126,
            "count" : 725,
            "type" : "VEC3"
        },
        {
            "bufferView" : 14,
            "componentType" : 5126,
            "count" : 725,
            "type" : "VEC2"
        },
        {
            "bufferView" : 15,
            "componentType" : 5123,
            "count" : 3690,
            "type" : "SCALAR"
        },
        {
            "bufferView" : 16,
            "componentType" : 5126,
            "count" : 42,
            "max" : [
                0.5027519464492798,
                -2.9412755966186523,
                -0.11032243072986603
            ],
            "min" : [
                0.4679141044616699,
                -3.6504967212677,
                -0.5902272462844849
            ],
            "type" : "VEC3"
        },
        {
            "bufferView" : 17,
            "componentType" : 5126,
            "count" : 42,
            "type" : "VEC3"
        },
        {
            "bufferView" : 18,
            "componentType" : 5126,
            "count" : 42,
            "type" : "VEC2"
        },
        {
            "bufferView" : 19,
            "componentType" : 5123,
            "count" : 240,
            "type" : "SCALAR"
        },
        {
            "bufferView" : 20,
            "componentType" : 5126,
            "count" : 264,
            "max" : [
                0.1633097231388092,
                -2.649247646331787,
                0.8138484954833984
            ],
            "min" : [
                -0.08831321448087692,
                -3.5574147701263428,
                0.7355785369873047
            ],
            "type" : "VEC3"
        },
        {
            "bufferView" : 21,
            "componentType" : 5126,
            "count" : 264,
            "type" : "VEC3"
        },
        {
            "bufferView" : 22,
            "componentType" : 5126,
            "count" : 264,
            "type" : "VEC2"
        },
        {
            "bufferView" : 23,
            "componentType" : 5123,
            "count" : 396,
            "type" : "SCALAR"
        },
        {
            "bufferView" : 24,
            "componentType" : 5126,
            "count" : 432,
            "max" : [
                0.508161187171936,
                -2.4360315799713135,
                0.6372168064117432
            ],
            "min" : [
                -0.5156606435775757,
                -2.7182188034057617,
                -0.7420751452445984
            ],
            "type" : "VEC3"
        },
        {
            "bufferView" : 25,
            "componentType" : 5126,
            "count" : 432,
            "type" : "VEC3"
        },
        {
            "bufferView" : 26,
            "componentType" : 5126,
            "count" : 432,
            "type" : "VEC2"
        },
        {
            "bufferView" : 27,
            "componentType" : 5123,
            "count" : 648,
            "type" : "SCALAR"
        },
        {
            "bufferView" : 28,
            "componentType" : 5126,
            "count" : 68,
            "max" : [
                0.5665112137794495,
                -2.4153153896331787,
                0.7849521040916443
            ],
            "min" : [
                -0.5698292255401611,
                -2.784543991088867,
                -0.7849521636962891
            ],
            "type" : "VEC3"
        },
        {
            "bufferView" : 29,
            "componentType" : 5126,
            "count" : 68,
            "type" : "VEC3"
        },
        {
            "bufferView" : 30,
            "componentType" : 5126,
            "count" : 68,
            "type" : "VEC2"
        },
        {
            "bufferView" : 31,
            "componentType" : 5123,
            "count" : 324,
            "type" : "SCALAR"
        },
        {
            "bufferView" : 32,
            "componentType" : 5126,
            "count" : 157872,
            "max" : [
                0.47919532656669617,
                0.47996965050697327,
                0.4791957437992096
            ],
            "min" : [
                -0.47919535636901855,
                -0.5003078579902649,
                -0.479195237159729
            ],
            "type" : "VEC3"
        },
        {
            "bufferView" : 33,
            "componentType" : 5126,
            "count" : 157872,
            "type" : "VEC3"
        },
        {
            "bufferView" : 34,
            "componentType" : 5126,
            "count" : 157872,
            "type" : "VEC2"
        },
        {
            "bufferView" : 35,
            "componentType" : 5125,
            "count" : 236808,
            "type" : "SCALAR"
        },
        {
            "bufferView" : 36,
            "componentType" : 5126,
            "count" : 1792,
            "max" : [
                0.01048239041119814,
                -0.41435688734054565,
                0.010482394136488438
            ],
            "min" : [
                -0.010482394136488438,
                -0.46449530124664307,
                -0.010482391342520714
            ],
            "type" : "VEC3"
        },
        {
            "bufferView" : 37,
            "componentType" : 5126,
            "count" : 1792,
            "type" : "VEC3"
        },
        {
            "bufferView" : 38,
            "componentType" : 5126,
            "count" : 1792,
            "type" : "VEC2"
        },
        {
            "bufferView" : 39,
            "componentType" : 5123,
            "count" : 2688,
            "type" : "SCALAR"
        },
        {
            "bufferView" : 40,
            "componentType" : 5126,
            "count" : 374,
            "max" : [
                0.011050563305616379,
                -0.7359731197357178,
                0.011050563305616379
            ],
            "min" : [
                -0.011050563305616379,
                -3.2177000045776367,
                -0.011050563305616379
            ],
            "type" : "VEC3"
        },
        {
            "bufferView" : 41,
            "componentType" : 5126,
            "count" : 374,
            "type" : "VEC3"
        },
        {
            "bufferView" : 42,
            "componentType" : 5126,
            "count" : 374,
            "type" : "VEC2"
        },
        {
            "bufferView" : 43,
            "componentType" : 5123,
            "count" : 576,
            "type" : "SCALAR"
        }
    ],
    "bufferViews" : [
        {
            "buffer" : 0,
            "byteLength" : 1920,
            "byteOffset" : 0
        },
        {
            "buffer" : 0,
            "byteLength" : 1920,
            "byteOffset" : 1920
        },
        {
            "buffer" : 0,
            "byteLength" : 1280,
            "byteOffset" : 3840
        },
        {
            "buffer" : 0,
            "byteLength" : 564,
            "byteOffset" : 5120
        },
        {
            "buffer" : 0,
            "byteLength" : 3060,
            "byteOffset" : 5684
        },
        {
            "buffer" : 0,
            "byteLength" : 3060,
            "byteOffset" : 8744
        },
        {
            "buffer" : 0,
            "byteLength" : 2040,
            "byteOffset" : 11804
        },
        {
            "buffer" : 0,
            "byteLength" : 1596,
            "byteOffset" : 13844
        },
        {
            "buffer" : 0,
            "byteLength" : 48,
            "byteOffset" : 15440
        },
        {
            "buffer" : 0,
            "byteLength" : 48,
            "byteOffset" : 15488
        },
        {
            "buffer" : 0,
            "byteLength" : 32,
            "byteOffset" : 15536
        },
        {
            "buffer" : 0,
            "byteLength" : 12,
            "byteOffset" : 15568
        },
        {
            "buffer" : 0,
            "byteLength" : 8700,
            "byteOffset" : 15580
        },
        {
            "buffer" : 0,
            "byteLength" : 8700,
            "byteOffset" : 24280
        },
        {
            "buffer" : 0,
            "byteLength" : 5800,
            "byteOffset" : 32980
        },
        {
            "buffer" : 0,
            "byteLength" : 7380,
            "byteOffset" : 38780
        },
        {
            "buffer" : 0,
            "byteLength" : 504,
            "byteOffset" : 46160
        },
        {
            "buffer" : 0,
            "byteLength" : 504,
            "byteOffset" : 46664
        },
        {
            "buffer" : 0,
            "byteLength" : 336,
            "byteOffset" : 47168
        },
        {
            "buffer" : 0,
            "byteLength" : 480,
            "byteOffset" : 47504
        },
        {
            "buffer" : 0,
            "byteLength" : 3168,
            "byteOffset" : 47984
        },
        {
            "buffer" : 0,
            "byteLength" : 3168,
            "byteOffset" : 51152
        },
        {
            "buffer" : 0,
            "byteLength" : 2112,
            "byteOffset" : 54320
        },
        {
            "buffer" : 0,
            "byteLength" : 792,
            "byteOffset" : 56432
        },
        {
            "buffer" : 0,
            "byteLength" : 5184,
            "byteOffset" : 57224
        },
        {
            "buffer" : 0,
            "byteLength" : 5184,
            "byteOffset" : 62408
        },
        {
            "buffer" : 0,
            "byteLength" : 3456,
            "byteOffset" : 67592
        },
        {
            "buffer" : 0,
            "byteLength" : 1296,
            "byteOffset" : 71048
        },
        {
            "buffer" : 0,
            "byteLength" : 816,
            "byteOffset" : 72344
        },
        {
            "buffer" : 0,
            "byteLength" : 816,
            "byteOffset" : 73160
        },
        {
            "buffer" : 0,
            "byteLength" : 544,
            "byteOffset" : 73976
        },
        {
            "buffer" : 0,
            "byteLength" : 648,
            "byteOffset" : 74520
        },
        {
            "buffer" : 0,
            "byteLength" : 1894464,
            "byteOffset" : 75168
        },
        {
            "buffer" : 0,
            "byteLength" : 1894464,
            "byteOffset" : 1969632
        },
        {
            "buffer" : 0,
            "byteLength" : 1262976,
            "byteOffset" : 3864096
        },
        {
            "buffer" : 0,
            "byteLength" : 947232,
            "byteOffset" : 5127072
        },
        {
            "buffer" : 0,
            "byteLength" : 21504,
            "byteOffset" : 6074304
        },
        {
            "buffer" : 0,
            "byteLength" : 21504,
            "byteOffset" : 6095808
        },
        {
            "buffer" : 0,
            "byteLength" : 14336,
            "byteOffset" : 6117312
        },
        {
            "buffer" : 0,
            "byteLength" : 5376,
            "byteOffset" : 6131648
        },
        {
            "buffer" : 0,
            "byteLength" : 4488,
            "byteOffset" : 6137024
        },
        {
            "buffer" : 0,
            "byteLength" : 4488,
            "byteOffset" : 6141512
        },
        {
            "buffer" : 0,
            "byteLength" : 2992,
            "byteOffset" : 6146000
        },
        {
            "buffer" : 0,
            "byteLength" : 1152,
            "byteOffset" : 6148992
        }
    ],
    "buffers" : [
        {
            "byteLength" : 6150144,
            "uri" : "BalloonHouse.bin"
        }
    ]
}
